<svg xmlns="http://www.w3.org/2000/svg" width="1440" height="1016" fill="none"><g opacity=".7"><mask id="a" width="1456" height="1081" x="-16" y="-65" maskUnits="userSpaceOnUse" style="mask-type:alpha"><path fill="#fff" d="M-16-65h1456v1081H-16z"/></mask><g mask="url(#a)"><g filter="url(#b)"><path fill="#EEF3FF" d="M-50.303 365.036h254.361s508.721 596.609-254.36 731.604V365.036Z"/></g><g filter="url(#c)"><path fill="#5280FF" fill-opacity=".06" d="M1461.27 1041.13H-15.529S1067.73 192.236 1311.07 553.352c230.23 341.67 150.2 487.778 150.2 487.778Z"/></g><g filter="url(#d)"><path fill="#0FF" fill-opacity=".04" d="m660.507 671.105 512.373 510.445s-373.458-310.875-708.163-20.35l195.79-490.095Z"/></g><g filter="url(#e)"><path fill="#0FF" fill-opacity=".04" d="m219.09 477.353-629.519-362.89S32.282 319.873 278.972-45.782L219.09 477.353Z"/></g><g filter="url(#f)"><path fill="#5280FF" fill-opacity=".08" d="M-26.168 337.649V-67.408s258.884 297.116 148.756 363.86C18.391 359.601-26.168 337.649-26.168 337.649Z"/></g></g><g stroke="#fff" stroke-width=".987" opacity=".6"><path d="M-224.412 1089.67c41.83-45.48 211.33-285.406 515.899-285.406 380.71 0 593.495 559.046 1167.593 97.224M-224.412 588.175c41.83-45.476 211.33-285.402 515.899-285.402 380.71 0 593.495 559.042 1167.593 97.225"/><path d="M-224.412 1073.49c41.83-45.48 211.33-285.403 515.899-285.403 380.71 0 593.495 559.043 1167.593 97.224"/><path d="M-224.412 1057.31c41.83-45.47 211.33-285.4 515.899-285.4 380.71 0 593.495 559.04 1167.593 97.225"/><path d="M-224.412 1041.13c41.83-45.472 211.33-285.397 515.899-285.397 380.71 0 593.495 559.037 1167.593 97.224"/><path d="M-224.412 1024.96c41.83-45.48 211.33-285.405 515.899-285.405 380.71 0 593.495 559.045 1167.593 97.225"/><path d="M-224.412 1008.78c41.83-45.477 211.33-285.402 515.899-285.402 380.71 0 593.495 559.042 1167.593 97.225"/><path d="M-224.412 992.603c41.83-45.476 211.33-285.402 515.899-285.402 380.71 0 593.495 559.039 1167.593 97.225"/><path d="M-224.412 976.426c41.83-45.476 211.33-285.402 515.899-285.402 380.71 0 593.495 559.046 1167.593 97.225"/><path d="M-224.412 960.249c41.83-45.476 211.33-285.402 515.899-285.402 380.71 0 593.495 559.043 1167.593 97.225"/><path d="M-224.412 944.071c41.83-45.476 211.33-285.401 515.899-285.401 380.71 0 593.495 559.04 1167.593 97.225"/><path d="M-224.412 927.894c41.83-45.476 211.33-285.401 515.899-285.401 380.71 0 593.495 559.037 1167.593 97.225"/><path d="M-224.412 911.717c41.83-45.476 211.33-285.401 515.899-285.401 380.71 0 593.495 559.044 1167.593 97.225"/><path d="M-224.412 895.54c41.83-45.476 211.33-285.401 515.899-285.401 380.71 0 593.495 559.041 1167.593 97.224"/><path d="M-224.412 879.363c41.83-45.476 211.33-285.402 515.899-285.402 380.71 0 593.495 559.039 1167.593 97.225"/><path d="M-224.412 863.186c41.83-45.476 211.33-285.401 515.899-285.401 380.71 0 593.495 559.045 1167.593 97.224"/><path d="M-224.412 847.009c41.83-45.476 211.33-285.401 515.899-285.401 380.71 0 593.495 559.042 1167.593 97.224"/><path d="M-224.412 830.831c41.83-45.476 211.33-285.401 515.899-285.401 380.71 0 593.495 559.04 1167.593 97.225"/><path d="M-224.412 814.654c41.83-45.476 211.33-285.401 515.899-285.401 380.71 0 593.495 559.037 1167.593 97.224"/><path d="M-224.412 798.477c41.83-45.476 211.33-285.401 515.899-285.401 380.71 0 593.495 559.044 1167.593 97.224"/><path d="M-224.412 782.3c41.83-45.476 211.33-285.401 515.899-285.401 380.71 0 593.495 559.041 1167.593 97.225"/><path d="M-224.412 766.123c41.83-45.476 211.33-285.401 515.899-285.401 380.71 0 593.495 559.038 1167.593 97.224"/><path d="M-224.412 749.945c41.83-45.476 211.33-285.401 515.899-285.401 380.71 0 593.495 559.046 1167.593 97.225"/><path d="M-224.412 733.769c41.83-45.476 211.33-285.401 515.899-285.401 380.71 0 593.495 559.042 1167.593 97.224"/><path d="M-224.412 717.592c41.83-45.477 211.33-285.402 515.899-285.402 380.71 0 593.495 559.042 1167.593 97.225"/><path d="M-224.412 701.414c41.83-45.476 211.33-285.401 515.899-285.401 380.71 0 593.495 559.041 1167.593 97.225"/><path d="M-224.412 685.237c41.83-45.476 211.33-285.401 515.899-285.401 380.71 0 593.495 559.041 1167.593 97.225"/><path d="M-224.412 669.061c41.83-45.476 211.33-285.402 515.899-285.402 380.71 0 593.495 559.042 1167.593 97.225"/><path d="M-224.412 652.883c41.83-45.476 211.33-285.401 515.899-285.401 380.71 0 593.495 559.042 1167.593 97.225"/><path d="M-224.412 636.706c41.83-45.476 211.33-285.401 515.899-285.401 380.71 0 593.495 559.041 1167.593 97.224"/><path d="M-224.412 620.529c41.83-45.476 211.33-285.402 515.899-285.402 380.71 0 593.495 559.042 1167.593 97.225"/><path d="M-224.412 604.352c41.83-45.476 211.33-285.401 515.899-285.401 380.71 0 593.495 559.041 1167.593 97.224"/></g><g stroke="#fff" stroke-width=".987" opacity=".8"><path d="M-137.901 399.072c41.83-26.905 211.33-168.854 515.898-168.854 380.71 0 593.495 330.75 1167.593 57.522M-137.901 102.371c41.83-26.905 211.33-168.854 515.898-168.854 380.71 0 593.495 330.75 1167.593 57.522"/><path d="M-137.901 389.501c41.83-26.905 211.33-168.854 515.898-168.854 380.71 0 593.495 330.75 1167.593 57.522"/><path d="M-137.901 379.93c41.83-26.905 211.33-168.854 515.898-168.854 380.71 0 593.495 330.75 1167.593 57.522"/><path d="M-137.901 370.359c41.83-26.905 211.33-168.854 515.898-168.854 380.71 0 593.495 330.75 1167.593 57.522"/><path d="M-137.901 360.788c41.83-26.905 211.33-168.854 515.898-168.854 380.71 0 593.495 330.75 1167.593 57.522"/><path d="M-137.901 351.217c41.83-26.905 211.33-168.854 515.898-168.854 380.71 0 593.495 330.75 1167.593 57.522"/><path d="M-137.901 341.646c41.83-26.905 211.33-168.854 515.898-168.854 380.71 0 593.495 330.75 1167.593 57.522"/><path d="M-137.901 332.075c41.83-26.905 211.33-168.854 515.898-168.854 380.71 0 593.495 330.75 1167.593 57.522"/><path d="M-137.901 322.504c41.83-26.905 211.33-168.854 515.898-168.854 380.71 0 593.495 330.75 1167.593 57.522"/><path d="M-137.901 312.933c41.83-26.905 211.33-168.854 515.898-168.854 380.71 0 593.495 330.75 1167.593 57.522"/><path d="M-137.901 303.362c41.83-26.905 211.33-168.854 515.898-168.854 380.71 0 593.495 330.75 1167.593 57.522"/><path d="M-137.901 293.791c41.83-26.905 211.33-168.854 515.898-168.854 380.71 0 593.495 330.75 1167.593 57.522"/><path d="M-137.901 284.22c41.83-26.905 211.33-168.854 515.898-168.854 380.71 0 593.495 330.75 1167.593 57.522"/><path d="M-137.901 274.649c41.83-26.905 211.33-168.854 515.898-168.854 380.71 0 593.495 330.75 1167.593 57.522"/><path d="M-137.901 265.078c41.83-26.905 211.33-168.854 515.898-168.854 380.71 0 593.495 330.75 1167.593 57.522"/><path d="M-137.901 255.507c41.83-26.905 211.33-168.854 515.898-168.854 380.71 0 593.495 330.75 1167.593 57.522"/><path d="M-137.901 245.936c41.83-26.905 211.33-168.854 515.898-168.854 380.71 0 593.495 330.75 1167.593 57.522"/><path d="M-137.901 236.365c41.83-26.905 211.33-168.854 515.898-168.854 380.71 0 593.495 330.75 1167.593 57.522"/><path d="M-137.901 226.794C-96.071 199.889 73.429 57.94 377.997 57.94c380.71 0 593.495 330.75 1167.593 57.522"/><path d="M-137.901 217.223c41.83-26.905 211.33-168.854 515.898-168.854 380.71 0 593.495 330.75 1167.593 57.522"/><path d="M-137.901 207.652c41.83-26.905 211.33-168.854 515.898-168.854 380.71 0 593.495 330.75 1167.593 57.522"/><path d="M-137.901 198.081c41.83-26.905 211.33-168.854 515.898-168.854 380.71 0 593.495 330.75 1167.593 57.522"/><path d="M-137.901 188.51c41.83-26.905 211.33-168.854 515.898-168.854 380.71 0 593.495 330.75 1167.593 57.522"/><path d="M-137.901 178.939c41.83-26.905 211.33-168.854 515.898-168.854 380.71 0 593.495 330.75 1167.593 57.522"/><path d="M-137.901 169.368C-96.071 142.463 73.429.514 377.997.514c380.71 0 593.495 330.75 1167.593 57.522"/><path d="M-137.901 159.797C-96.071 132.892 73.429-9.057 377.997-9.057c380.71 0 593.495 330.75 1167.593 57.522"/><path d="M-137.901 150.226c41.83-26.905 211.33-168.854 515.898-168.854 380.71 0 593.495 330.75 1167.593 57.522"/><path d="M-137.901 140.655c41.83-26.905 211.33-168.854 515.898-168.854 380.71 0 593.495 330.75 1167.593 57.522"/><path d="M-137.901 131.084C-96.071 104.179 73.429-37.77 377.997-37.77c380.71 0 593.495 330.75 1167.593 57.522"/><path d="M-137.901 121.513c41.83-26.905 211.33-168.854 515.898-168.854 380.71 0 593.495 330.75 1167.593 57.522"/><path d="M-137.901 111.942c41.83-26.905 211.33-168.854 515.898-168.854 380.71 0 593.495 330.75 1167.593 57.522"/></g></g><defs><filter id="b" width="756.162" height="1067.29" x="-218.147" y="197.192" color-interpolation-filters="sRGB" filterUnits="userSpaceOnUse"><feFlood flood-opacity="0" result="BackgroundImageFix"/><feBlend in="SourceGraphic" in2="BackgroundImageFix" result="shape"/><feGaussianBlur result="effect1_foregroundBlur_28_605" stdDeviation="83.922"/></filter><filter id="c" width="1825.95" height="912.92" x="-183.373" y="296.058" color-interpolation-filters="sRGB" filterUnits="userSpaceOnUse"><feFlood flood-opacity="0" result="BackgroundImageFix"/><feBlend in="SourceGraphic" in2="BackgroundImageFix" result="shape"/><feGaussianBlur result="effect1_foregroundBlur_28_605" stdDeviation="83.922"/></filter><filter id="d" width="1043.85" height="846.131" x="296.873" y="503.261" color-interpolation-filters="sRGB" filterUnits="userSpaceOnUse"><feFlood flood-opacity="0" result="BackgroundImageFix"/><feBlend in="SourceGraphic" in2="BackgroundImageFix" result="shape"/><feGaussianBlur result="effect1_foregroundBlur_28_605" stdDeviation="83.922"/></filter><filter id="e" width="1025.09" height="858.822" x="-578.273" y="-213.625" color-interpolation-filters="sRGB" filterUnits="userSpaceOnUse"><feFlood flood-opacity="0" result="BackgroundImageFix"/><feBlend in="SourceGraphic" in2="BackgroundImageFix" result="shape"/><feGaussianBlur result="effect1_foregroundBlur_28_605" stdDeviation="83.922"/></filter><filter id="f" width="511.723" height="744.437" x="-194.012" y="-235.252" color-interpolation-filters="sRGB" filterUnits="userSpaceOnUse"><feFlood flood-opacity="0" result="BackgroundImageFix"/><feBlend in="SourceGraphic" in2="BackgroundImageFix" result="shape"/><feGaussianBlur result="effect1_foregroundBlur_28_605" stdDeviation="83.922"/></filter></defs></svg>