<svg xmlns="http://www.w3.org/2000/svg" width="410" height="456" fill="none"><path fill="#C1CACD" d="M312.292 399.458c35.239 0 63.806-3.011 63.806-6.727 0-3.715-28.567-6.727-63.806-6.727-35.238 0-63.805 3.012-63.805 6.727 0 3.716 28.567 6.727 63.805 6.727ZM113.791 361.899c35.239 0 63.805-3.012 63.805-6.727 0-3.716-28.566-6.727-63.805-6.727-35.238 0-63.805 3.011-63.805 6.727 0 3.715 28.567 6.727 63.805 6.727Z" opacity=".43"/><path fill="#CDD6D9" d="M233.318 341.927s-22.054-12.06-18.037-25.396c2.422-8.044 14.391-4.475 15.251 3.563.86 8.037 5.972 23.575 5.972 23.575l-3.186-1.742ZM243.459 351.561s21.752-7.515 20.121-20.216c-.983-7.668-12.382-6.274-14.336.878-1.954 7.152-8.943 20.404-8.943 20.404l3.158-1.066ZM241.931 317.082s22.977-.397 25.261-12.973c1.376-7.584-11.929-9.683-15.981-3.485-4.051 6.197-12.602 16.528-12.602 16.528l3.322-.07ZM287.568 234.274c-.234.565 24.484 6.504 29.485-2.231 5.001-8.734-3.887-19.121-19.4-8.971 0 0-7.608 5.263-10.085 11.202ZM261.881 256.532s14.509 8.435 25.818.697c11.31-7.738-6.095-20.481-23.795-3.165l-2.023 2.468ZM246.499 285.371s14.509 8.428 25.825.697c11.316-7.731-6.095-20.474-23.802-3.165l-2.023 2.468ZM253.2 267.895s-12.817-10.889-9.576-24.315c3.24-13.426 21.071-1.269 11.151 21.54l-1.575 2.775ZM277.827 238.868s-12.382-22.503-2.951-32.506c9.177-9.759 21.924 11.997 5.318 30.394l-2.367 2.112ZM234.742 302.143s-17.576-14.52-12.761-26.343c2.903-7.131 14.509-4.315 14.612 3.102.103 7.417 2.752 27.738 2.752 27.738l-4.603-4.497Z" opacity=".34" style="mix-blend-mode:multiply"/><g opacity=".9"><path fill="#CDD6D9" d="M202.376 292.781s21.284-19.616 13.173-33.356c-4.898-8.288-17.26-.955-16.028 8.247 1.231 9.202-.227 27.947-.227 27.947l3.082-2.838Z" opacity=".34" style="mix-blend-mode:multiply"/><path fill="#D3E6EA" d="M187.798 247.54s17.756-19.791 9.17-31.621c-5.18-7.131-15.822.656-13.93 8.944 1.892 8.289 2.194 25.535 2.194 25.535l2.566-2.858Z" style="mix-blend-mode:multiply"/><path fill="#CDD6D9" d="M193.701 306.368s-26.3-2.287-27.937-16.877c-.99-8.797 12.053-10.456 16.215-3.032 4.162 7.424 15.519 20.216 15.519 20.216l-3.797-.307ZM186.003 267.512s-25.722 5.995-31.693-7.383c-3.605-8.065 10.649-14.13 16.854-8.365 6.205 5.765 18.574 14.89 18.574 14.89l-3.735.858ZM112.546 188.014c.413.558-21.546 14.64-29.498 6.274-7.953-8.365 2.676-20.508 15.224-15.928 0 .014 9.885 3.722 14.274 9.654ZM147.293 205.644s-13.868 13.461-28.583 8.031c-14.715-5.431 1.204-24.531 25.66-10.192l2.923 2.161ZM172.251 233.451s-13.868 13.461-28.583 8.024c-14.715-5.437 1.204-24.524 25.66-10.185l2.923 2.161ZM160.013 215.85s11.316-15.72 4.045-29.78c-7.271-14.061-23.83 4.489-6.549 27.131l2.504 2.649ZM124.647 190.405s5.758-18.563-5.572-29.522c-11.331-10.958-21.161 11.997 2.366 27.822l3.206 1.7Z" opacity=".34" style="mix-blend-mode:multiply"/></g><path fill="#fff" stroke="#002A4E" stroke-linecap="round" stroke-linejoin="round" stroke-width="1.49" d="M287.383 150.009c.144-.196 5.228 0 5.228 0s-5.868 6.036-8.173 8.037c-5.008 4.357-8.874 1.562-8.874 1.562s-5.565-3.04-9.81-10.29c-2.635-4.496-4.533-5.165-4.533-5.165s-2.69 1.561-4.327.098c-1.638-1.464-1.541-3.347-1.039-3.883.502-.537 4.705 1.143 4.65-.948-.055-2.092-.399-3.793.489-3.214.887.579.887 4.608.887 4.608s13.208 10.735 13.662 11.035c5.05 3.283 11.84-1.84 11.84-1.84Z"/><path fill="#fff" stroke="#002A4E" stroke-linecap="round" stroke-linejoin="round" stroke-width="1.49" d="M193.708 206.822c-17.352 0-34.314-5.214-48.741-14.982-14.427-9.769-25.672-23.653-32.312-39.898a89.997 89.997 0 0 1-4.993-51.365c3.385-17.245 11.741-33.085 24.01-45.518 12.27-12.433 27.902-20.9 44.92-24.33a86.66 86.66 0 0 1 50.689 5.058c16.031 6.73 29.733 18.124 39.373 32.743 9.64 14.62 14.785 31.808 14.785 49.391-.026 23.57-9.277 46.168-25.724 62.834-16.447 16.667-38.747 26.041-62.007 26.067v0Zm0-177.377c-17.269 0-34.15 5.19-48.508 14.911-14.358 9.722-25.549 23.54-32.158 39.707a89.575 89.575 0 0 0-4.968 51.119c3.369 17.163 11.684 32.927 23.895 45.301 12.211 12.373 27.768 20.8 44.705 24.214a86.239 86.239 0 0 0 50.446-5.035c15.955-6.696 29.591-18.037 39.185-32.586 9.594-14.55 14.714-31.656 14.714-49.155-.025-23.457-9.232-45.946-25.601-62.533-16.368-16.587-38.562-25.917-61.71-25.943v0Z"/><path fill="#fff" stroke="#002A4E" stroke-linecap="round" stroke-linejoin="round" stroke-width="1.49" d="M279.244 122.996a87.62 87.62 0 0 0-12.034-44.33c-7.873-13.412-19.169-24.423-32.7-31.874a84.698 84.698 0 0 0-44.182-10.463c-15.388.602-30.33 5.399-43.253 13.885-12.924 8.486-23.349 20.347-30.178 34.334a87.753 87.753 0 0 0-8.624 45.139c1.184 15.558 6.487 30.505 15.35 43.266 8.864 12.76 20.96 22.862 35.014 29.24h-.103l.351.112h.048a17.737 17.737 0 0 1 8.977 8.916c4.768 10.721 3.935 23.213 4.19 23.98h47.13c0-19.93 4.973-30.881 7.416-32.115 15.584-6.606 28.892-17.734 38.251-31.985 9.359-14.25 14.351-30.987 14.347-48.105Z" opacity=".54"/><path fill="#fff" stroke="#002A4E" stroke-linecap="round" stroke-linejoin="round" stroke-width="1.49" d="M173.613 228.307h44.447c.402 0 .787.161 1.07.449.284.287.444.678.444 1.084v26.943a6.962 6.962 0 0 1-1.999 4.89 6.78 6.78 0 0 1-4.826 2.025h-33.825a6.777 6.777 0 0 1-4.825-2.025 6.962 6.962 0 0 1-1.999-4.89V229.84c0-.406.159-.797.443-1.084a1.502 1.502 0 0 1 1.07-.449v0Z"/><path fill="#FF6D31" d="m185.797 228.648-13.91-94.017c-9.432-1.276-18.87-4.057-23.321-9.829-3.605-4.678-4.815-11.029-3.027-16.18 1.562-4.559 5.304-7.787 10.539-9.062a9.792 9.792 0 0 1 4.118-.283c1.378.2 2.698.69 3.876 1.44 4.932 3.206 6.343 10.331 6.398 10.631v.041l3.171 21.394c7.94.848 15.937 1.021 23.905.516h.042c.158 0 7.154-.286 15.389-1.436.213-2.175.378-3.799.488-4.726.22-1.854.365-3.827.516-5.919.378-5.242.777-10.651 2.421-14.897 1.982-5.095 5.414-7.57 10.498-7.57 2.889.008 5.718.839 8.163 2.398a15.538 15.538 0 0 1 5.664 6.42c2.793 5.521 2.566 11.942-.571 16.354-3.79 5.34-15.258 8.212-25.329 9.76-2.222 23.122-8.358 94.108-8.427 94.903l-2.002-.182c.069-.801 6.109-70.741 8.372-94.422-7.815 1.074-14.357 1.346-15.086 1.395-7.909.536-15.849.392-23.734-.433l13.835 93.412-1.988.292Zm-26.898-127.422c-.791.007-1.578.108-2.346.299-5.827 1.443-8.173 5.02-9.115 7.773-1.541 4.51-.482 10.101 2.71 14.242 3.976 5.151 12.603 7.724 21.422 8.958l-3.082-20.788c-.075-.376-1.41-6.636-5.503-9.292a7.34 7.34 0 0 0-4.086-1.192Zm68.008-.453c-9.411 0-10.174 10.456-10.91 20.571-.152 2.091-.303 4.113-.523 6.009-.103.857-.248 2.286-.434 4.183 9.562-1.471 20.143-4.127 23.486-8.833 2.704-3.799 2.869-9.383.42-14.228a13.56 13.56 0 0 0-4.929-5.601 13.299 13.299 0 0 0-7.11-2.101Z"/><path fill="#002A4E" d="M277.635 392.794a1.988 1.988 0 0 1-1.293-.573 2.037 2.037 0 0 1-.599-1.295l-19.482-201.462a2.113 2.113 0 0 1 .425-1.516c.332-.43.816-.711 1.35-.784a1.963 1.963 0 0 1 1.471.464 2.02 2.02 0 0 1 .703 1.39l19.482 201.462a2.113 2.113 0 0 1-.426 1.516 2.062 2.062 0 0 1-1.349.784 1.903 1.903 0 0 1-.282.014ZM343.517 390.661c-.935 0-2.242-.697-2.442-1.736L301.258 184.78a2.184 2.184 0 0 1 .259-1.592 2.134 2.134 0 0 1 1.275-.966 1.982 1.982 0 0 1 2.075.916c.142.23.237.488.278.757l40.367 206.215c.227 1.164-2.222-.537-1.995.551Z"/><path fill="#002A4E" d="M319.13 273.332h-53.052a1.898 1.898 0 0 1-1.998-1.119 1.974 1.974 0 0 1 0-1.602 1.91 1.91 0 0 1 1.998-1.12h53.052c.271-.037.546-.015.807.065a1.917 1.917 0 0 1 1.191 1.055 1.967 1.967 0 0 1 0 1.602 1.917 1.917 0 0 1-1.191 1.055 1.898 1.898 0 0 1-.807.064ZM308.282 243.81H262.5a1.89 1.89 0 0 1-1.268-.601 1.941 1.941 0 0 1 0-2.638 1.891 1.891 0 0 1 1.268-.602h45.782c.483.03.936.245 1.268.602.332.357.516.828.516 1.319 0 .49-.184.962-.516 1.319a1.89 1.89 0 0 1-1.268.601ZM322.99 301.628h-53.92c-.504 0-.986-.203-1.343-.564a1.937 1.937 0 0 1-.556-1.36c0-.511.2-1 .556-1.361a1.887 1.887 0 0 1 1.343-.563h53.92c.503 0 .986.202 1.342.563.356.361.556.85.556 1.361 0 .51-.2.999-.556 1.36a1.885 1.885 0 0 1-1.342.564ZM272.062 327.337a1.892 1.892 0 0 1-1.857-1.158 1.96 1.96 0 0 1 0-1.526 1.924 1.924 0 0 1 1.097-1.046c.243-.089.502-.127.76-.112h55.516c.504 0 .987.203 1.343.564.356.361.556.85.556 1.36 0 .511-.2 1-.556 1.361a1.885 1.885 0 0 1-1.343.563l-55.516-.006ZM333.618 357.179h-58.721a1.88 1.88 0 0 1-1.474-.486 1.946 1.946 0 0 1 0-2.869 1.894 1.894 0 0 1 1.474-.486h58.721a1.894 1.894 0 0 1 1.939 1.136 1.943 1.943 0 0 1 0 1.57 1.925 1.925 0 0 1-1.151 1.051 1.88 1.88 0 0 1-.788.084Z"/><path fill="#fff" stroke="#002A4E" stroke-linecap="round" stroke-linejoin="round" stroke-width="1.49" d="M283.764 149.423a3.49 3.49 0 0 1-2.339-1.287 3.58 3.58 0 0 1-.77-2.582l.598-5.904a3.557 3.557 0 0 1 1.273-2.371 3.463 3.463 0 0 1 2.552-.773v0c.917.098 1.759.56 2.341 1.285a3.57 3.57 0 0 1 .768 2.584l-.605 5.897a3.556 3.556 0 0 1-1.268 2.373c-.715.59-1.632.87-2.55.778ZM317.603 269.54l-11.695 4.747c-.405.154-1.63 0-1.843-.286a1.41 1.41 0 0 1-.096-1.616c.101-.163.234-.304.392-.412 1.197-1.067 2.861-2.788 3.377-3.332a.878.878 0 0 1 .413-.237l7.361-2.092a.93.93 0 0 1 .97.265l1.527 1.91a.715.715 0 0 1 .063.632.702.702 0 0 1-.469.421ZM278.323 272.851l-12.569.056a.953.953 0 0 1-.686-.241.978.978 0 0 1-.325-.658 1.801 1.801 0 0 1 .32-1.053c.214-.308.519-.54.87-.662 1.41-.53 3.44-1.394 4.079-1.652a.898.898 0 0 1 .434-.07l6.962.495a.994.994 0 0 1 .535.185c.158.113.28.269.352.449l.777 2.231a.701.701 0 0 1-.118.675.693.693 0 0 1-.631.245Z"/><path fill="#FF6D31" stroke="#002A4E" stroke-linecap="round" stroke-linejoin="round" stroke-width="1.49" d="M281.769 136.631a7.907 7.907 0 0 1 3.024-3.095 7.764 7.764 0 0 1 4.179-1.018c5.338 0 7.257 5.514 7.326 9.118.069 3.604 2.931 5.082 3.681 5.877.591.627-.565 2.314-.09 3.318a2.99 2.99 0 0 0 1.52 1.29 8.106 8.106 0 0 1 2.539 2.091c1.727 2.133 4.162 6.1 1.451 9.146-3.9 4.385-7.395 4.524-6.569 6.72.825 2.196 2.325 2.788-.207 4.88-2.531 2.091-6.879 3.102-6.879 3.102l1.163-8.825.777-4.03-11.007-.564s-3.508-4.761-.908-6.03a3.334 3.334 0 0 0 1.655-1.534c.359-.691.47-1.487.313-2.251l4.285-11.802s-7.698-2.907-6.253-6.393Z"/><path fill="#fff" stroke="#002A4E" stroke-linecap="round" stroke-linejoin="round" stroke-width="1.49" d="M284.879 250.76s-3.282 10.206-5.366 13.761c-2.085 3.555-1.197 5.131-1.197 5.131s-7.107 1.798-8.365 1.296c-2.821-1.122.165-2.349.165-2.349a6.75 6.75 0 0 0 2.605-1.196 6.85 6.85 0 0 0 1.887-2.178c1.458-2.83 1.266-15.991 1.266-15.991l9.005 1.526ZM312.554 245.323s1.637 11.258 1.438 15.636c-.2 4.378 1.933 5.444 1.933 5.444s-6.144 5.047-7.568 4.922c-1.933-.175-.626-2.677-.626-2.677s2.676-2.789 2.339-4.608c-.598-3.318-7.058-18.717-7.058-18.717h9.542Z"/><path fill="#D0D8DB" stroke="#012A4E" stroke-linecap="round" stroke-linejoin="round" stroke-width="1.49" d="m278.942 187.854-5.703 34.66a18.732 18.732 0 0 0 .798 9.125c1.692 5.075 2.112 16.674 1.589 18.487-.385 1.317 1.513 1.631 1.513 1.631l7.382 1.088a7.935 7.935 0 0 0 .853-8.721 10.747 10.747 0 0 1-.323-2.6c.068-.983 1.472-4.671-1.081-13.677-1.41-4.978 6.666-13.977 6.666-13.977s8.359-8.365 6.88-15.127c-1.479-6.762-18.574-10.889-18.574-10.889Z"/><path fill="#D0D8DB" stroke="#012A4E" stroke-linecap="round" stroke-linejoin="round" stroke-width="1.49" d="m279.994 186.976 10.636 40.118s.461 3.869 4.279 7.528c3.818 3.66 8.399 11.154 9.073 15.608.124.851.275 1.283.86 1.52a2.795 2.795 0 0 0 2.422-.174l6.301-3.423s.867-7.766-1.844-7.069l-1.375-3.875c-.344-.962-4.334-8.714-7.974-12.276-3.639-3.562-1.616-12.855-1.616-12.855s4.864-19.421 1.623-24.81c-3.611-6.022-22.385-.292-22.385-.292Z"/><path fill="#fff" stroke="#002A4E" stroke-linecap="round" stroke-linejoin="round" stroke-width="1.49" d="M277.353 189.569h25.804a17.475 17.475 0 0 0-4.486-7.814 16.9 16.9 0 0 1-3.983-6.386 17.086 17.086 0 0 1-.832-7.508c.55-4.078 3.013-7.466.365-11.892-2.649-4.427-5.58-2.691-7.863 0l-9.033 10.679s-.309 5.131 2.903 8.505c3.213 3.374-2.917 13.893-2.917 13.893l.042.523Z"/><path fill="#fff" stroke="#002A4E" stroke-linecap="round" stroke-linejoin="round" stroke-width="1.49" d="M286.894 156.986c.158-.216 4.073 6.121 4.073 6.121s-4.252 3.785-6.969 5.814c-6.191 4.636-9.796 1.715-9.796 1.715s-6.123-3.416-10.801-11.551c-2.896-5.026-4.959-5.8-4.959-5.8s-2.959 1.75-4.761.111c-1.802-1.638-1.706-3.757-1.149-4.363.557-.607 5.18 1.303 5.125-1.046-.055-2.349-.44-4.266.537-3.618.977.648.997 5.166.997 5.166s14.55 12.059 15.045 12.387c5.531 3.688 12.658-4.936 12.658-4.936ZM143.042 342.526l1.046 6.044 4.045-.634.715-1.806-1.314-4.872-4.492 1.268ZM77.235 339.117l-2.064 4.657 1.713 1.534s3.44 0 3.302-.133c-.138-.132 1.424-4.057 1.424-4.057l-4.375-2.001Z"/><path fill="#D0D8DB" stroke="#012A4E" stroke-linecap="round" stroke-linejoin="round" stroke-width="1.49" d="M148.064 341.892s-2.36 2.705-5.022 1.75c-2.662-.955-12.238-26.232-13.497-30.847-1.259-4.615-18.196-25.751-18.196-25.751l14.687-24.398s11.358 26.009 16.511 44.928a158.08 158.08 0 0 1 5.503 34.659l.014-.341Z"/><path fill="#D0D8DB" stroke="#012A4E" stroke-linecap="round" stroke-linejoin="round" stroke-width="1.49" d="M125.397 254.03s-22.75 1.268-26.513.634c-3.763-.634-4.554 17.804-6.123 31.634a70.295 70.295 0 0 1-7.842 24.643s-6.59 17.65-7.567 27.981a5.253 5.253 0 0 0 2.06 1.75 5.17 5.17 0 0 0 2.645.481c3.295-.16 17.886-27.347 17.886-27.347s6.123-10.972 9.26-18.599c3.137-7.626 10.67-20.508 13.807-25.095 3.136-4.587 3.762-7.947 3.762-7.947s-1.692-7.501-1.375-8.135Z"/><path fill="#fff" stroke="#002A4E" stroke-linecap="round" stroke-linejoin="round" stroke-width="1.49" d="M146.633 189.081a1.587 1.587 0 0 0 0-.258v-.195c0-.795-.688-.99-1.211-.983-4.169.091-3.742 4.468-4.918 6.385l-.097.175-10.704 21.61c-.323.927-1.376 1.478-1.892 1.882l-2.951-.279a2.055 2.055 0 0 0-1.286.697c-2.621 3.13-13.284 13.775-12.245 15.755.119.216.2.452.24.697l.069.439c.068.42.26.81.552 1.116a2.044 2.044 0 0 0 2.306.467c.386-.17.711-.455.933-.816.77-1.269 1.506-2.733 2.153-3.73a2.066 2.066 0 0 1 1.555-.941l14.006-.697c.626-.049 2.008-.258 2.352-.795 4.816-7.382 6.433-15.58 6.749-16.849 0-.076.461-1.986.468-2.091l1.472-15.95c.165-1.951.571-1.854 1.823-3.764a4.919 4.919 0 0 0 .626-1.875v0Z"/><path fill="#fff" stroke="#002A4E" stroke-linecap="round" stroke-linejoin="round" stroke-width="1.49" d="M91.2 220.137c.364-1.311 2.545-7.829 10.594-11.851a.747.747 0 0 1 .894.195l6.618 6.971c.592.621 1.479.077 1.479-.913v-3.262c0-.795.599-1.36 1.183-1.116l5.889 2.391a.53.53 0 0 1 .158.091c.509.355 5.813.355 10.519 3.855.447.334-.159 2.865 0 3.66l-1.101 9.536a9.244 9.244 0 0 1-2.435 1.394 3.276 3.276 0 0 0-1.426 1.224 3.339 3.339 0 0 0-.528 1.815c0 .314.206 1.527.151 1.729l2.752 20.795c-.11.411-9.094 1.973-9.425 2.035l-11.488 2.217a.843.843 0 0 1-.54-.109.86.86 0 0 1-.361-.421l-12.197-24.907a1.41 1.41 0 0 1-.138-.565l-.612-14.311a1.411 1.411 0 0 1 .014-.453v0Z"/><path fill="#fff" stroke="#002A4E" stroke-linecap="round" stroke-linejoin="round" stroke-width="1.49" d="M113.213 266.034c-2.105-1.395-17.273-4.378-24.153-13.127-2.751-3.485-3.625-10.707-3.48-16.577.584-24.133 17.081-27.535 17.081-27.535.901-.265.495-3.207.653-3.744 0-.069-.309-.529-.296-.599l1.514-3.2c.039-.181.099-.356.179-.522l1.788-3.772c.187-.395.488-.723.862-.942a2.126 2.126 0 0 1 1.236-.285l7.045.544a2.148 2.148 0 0 1 1.444.731 2.2 2.2 0 0 1 .537 1.542l-.254 5.709a2.198 2.198 0 0 1-.805 1.61l-5.6 4.524c-.557.446-.055.879 0 1.597v3.485c0 2.029-.86 2.029-1.149 1.792l-8.943 9.654-.138.154c-10.828 13.858 8.063 31.028 13.594 34.855 0 0 3.646 3.004 4.32 3.827.344.418 2.704 3.694 1.376 6.971-1.328 3.276-4.045-1.394-4.045-3.144 0-1.75-2.766-3.548-2.766-3.548Z"/><path fill="#FF6D31" stroke="#002A4E" stroke-linecap="round" stroke-linejoin="round" stroke-width="1.49" d="m113.406 197.362 3.116.133c.97.042 2.546-.607 3.027-1.464.998-1.75 1.376-6.058-3.721-6.671-7.444-.892-3.44 4.817-9.92 4.182-6.48-.634-1.954 3.827-2.752 6.407-.798 2.579-2.752 3.576-1.128 4.914 1.623 1.339 4.912-.111 3.77-2.147-1.514-2.67.915-4.768 2.29-3.485 1.376 1.282-.158 4.336-.158 4.336s-1.541 2.927-.86 4.12a34.06 34.06 0 0 0 3.062 3.764c.247.275.55.494.887.641 1.589.697 6.267 2.496 5.902-.432a9.321 9.321 0 0 1 .427-4.42 2.649 2.649 0 0 0-.027-1.9 2.603 2.603 0 0 0-1.287-1.383 9.234 9.234 0 0 0-3.33-.739c-3.591-.237-2.641-2.879-1.664-4.545a2.625 2.625 0 0 1 1.003-.989 2.586 2.586 0 0 1 1.363-.322v0Z"/><path fill="#fff" stroke="#002A4E" stroke-linecap="round" stroke-linejoin="round" stroke-width="1.49" d="M83.894 348.089s3.054 2.091 3.295 3.186c.44 2.091-3.11 2.335-5.95.314-4.252-3.019-6.653-3.814-7.244-4.295-.592-.481 1.135-5.054 1.63-4.133.42.794 1.376 3.025 4.87.955a13.662 13.662 0 0 0 3.4 3.973v0ZM152.927 347.775s3.605.161 4.272 1.074c1.246 1.694-1.437 3.011-4.904 2.74-2.752-.217-7.568-.098-8.324-.307-.757-.209-.592-5.347-.055-4.448.853 1.395 3.831.941 4.87-1.003 0 0 2.126 2.098 4.141 1.944ZM89.948 217.934c-.13.251 11.392 8.951 11.392 8.951l9.232-9.098-8.489-9.027s-8.6 2.377-12.135 9.174Z"/></svg>